PathFileType	4	(X/Y/Z)	C:/Users/opensim2020/Desktop/walking_exp_matlab/subject02_walking10_straight_02.trc	
DataRate	CameraRate	NumFrames	NumMarkers	Units	OrigDataRate	OrigDataStartFrame	OrigNumFrames	
100.00	100.00	6	43	mm	100.00	1575	280	
Frame#	Time	LFHD			RFHD			LBHD			RBHD			C7			T10			CLAV			STRN			RBAK			LSHO			LUPA			LELB			LFRM			LWRA			LWRB			LFIN			RSHO			RUPA			RELB			RFRM			RWRA			RWRB			RFIN			LASI			RASI			LPSI			RPSI			LTHI			LKNE			LTIB			LANK			LHEE			LTOE			RTHI			RKNE			RTIB			RANK			RHEE			RTOE			*39			*40			*41			*42			
		X1	Y1	Z1	X2	Y2	Z2	X3	Y3	Z3	X4	Y4	Z4	X5	Y5	Z5	X6	Y6	Z6	X7	Y7	Z7	X8	Y8	Z8	X9	Y9	Z9	X10	Y10	Z10	X11	Y11	Z11	X12	Y12	Z12	X13	Y13	Z13	X14	Y14	Z14	X15	Y15	Z15	X16	Y16	Z16	X17	Y17	Z17	X18	Y18	Z18	X19	Y19	Z19	X20	Y20	Z20	X21	Y21	Z21	X22	Y22	Z22	X23	Y23	Z23	X24	Y24	Z24	X25	Y25	Z25	X26	Y26	Z26	X27	Y27	Z27	X28	Y28	Z28	X29	Y29	Z29	X30	Y30	Z30	X31	Y31	Z31	X32	Y32	Z32	X33	Y33	Z33	X34	Y34	Z34	X35	Y35	Z35	X36	Y36	Z36	X37	Y37	Z37	X38	Y38	Z38	X39	Y39	Z39	X40	Y40	Z40	X41	Y41	Z41	X42	Y42	Z42	X43	Y43	Z43	

176	1.750	-997.89014	-253.63013	1723.01221	-1140.24658	-251.90735	1703.32996	-986.97552	-123.29780	1648.37683	-1129.20349	-109.14519	1627.18823	-1065.89331	-70.56197	1508.15454	-1075.90991	-14.08609	1232.84485	-1046.76086	-208.55348	1437.06360	-1065.12842	-259.06958	1265.33545	-1140.57495	-15.39669	1338.42029	-881.91058	-126.07195	1473.51025	-810.46448	-78.80257	1276.34998	-806.38904	-51.22794	1137.51563	-793.45862	-39.13054	1006.27063	-814.67328	-81.40575	873.73645	-791.56293	-30.60770	882.93146	-785.89960	-40.16462	816.78473	-1246.06152	-164.60603	1481.86108	-1341.82922	-170.74385	1293.67322	-1366.68127	-217.13028	1153.68408	-1375.87048	-281.73535	1050.49451	-1344.19470	-360.76617	945.21179	-1384.27026	-325.30032	927.83063	-1378.31653	-381.14590	882.20581	-950.20581	-261.60626	975.10968	-1209.55859	-236.19743	952.80188	-1015.93225	-44.03765	1014.20563	-1128.41235	-29.37782	1015.49670	-873.86993	-262.84277	672.97375	-908.06262	-296.22186	474.65176	-906.15863	-296.51733	280.31613	-928.58215	-370.04446	67.01165	-983.54761	-346.52274	33.09501	-915.03943	-527.68982	63.73311	-1252.72314	-90.65575	658.77307	-1210.34961	-37.98104	454.89133	-1204.84351	66.15595	295.63333	-1161.16467	144.60744	118.87169	-1100.63562	187.02913	73.89000	-1186.87268	9.94086	36.60517	-1086.57581	-150.60474	1787.71985									 
177	1.760	-995.78687	-261.59885	1722.17029	-1138.26294	-259.93484	1702.37952	-985.12482	-131.62212	1647.55847	-1127.19006	-117.37751	1626.06458	-1063.77258	-78.79311	1506.73169	-1073.14795	-23.51546	1231.05066	-1044.81738	-217.24515	1436.20178	-1063.21460	-268.51852	1264.80017	-1137.76025	-24.22134	1336.39636	-879.90558	-134.84351	1472.56885	-808.36340	-88.41839	1275.16431	-804.08728	-60.77862	1136.56494	-791.44482	-49.05666	1005.05103	-812.34558	-91.61067	872.69598	-789.26678	-40.75199	881.81476	-783.59741	-50.28678	815.74182	-1244.12402	-172.53162	1480.65967	-1339.71924	-178.22980	1292.54260	-1364.38635	-223.75826	1152.24963	-1373.76685	-287.75665	1048.82202	-1341.85999	-366.02328	942.61560	-1382.24670	-330.72742	925.80341	-1376.26917	-386.21198	879.70752	-948.34009	-272.94196	974.90680	-1207.73596	-246.60803	952.08698	-1012.61890	-54.95490	1012.87982	-1125.13794	-39.71365	1014.09241	-872.41949	-273.10809	671.61487	-906.71307	-303.46118	472.53580	-906.31885	-301.50516	277.99432	-929.44098	-372.72534	65.32590	-983.79022	-349.26929	34.58575	-916.01959	-531.77478	55.08120	-1251.50500	-98.50855	658.66284	-1210.01514	-44.72037	455.05588	-1204.41968	62.00417	297.48795	-1161.43640	142.92140	121.74928	-1100.66040	185.56425	77.44354	-1187.18726	9.82990	36.52069	-1084.65405	-158.75836	1786.61914									 
178	1.770	-994.15668	-270.30164	1721.37341	-1136.42236	-268.16138	1701.68457	-982.88763	-140.13350	1646.44421	-1125.15942	-125.56988	1625.02649	-1061.48218	-86.94580	1505.45581	-1069.99170	-32.94791	1229.74829	-1042.81006	-225.96687	1435.51880	-1061.30994	-277.96118	1264.55713	-1134.73950	-32.94210	1334.87427	-877.69287	-143.68727	1471.61047	-805.94324	-97.64928	1274.04919	-801.56696	-70.67036	1135.37695	-788.90326	-59.07893	1004.02185	-810.00232	-102.05951	871.64679	-786.81470	-51.11765	880.64563	-780.98511	-61.09684	814.52234	-1242.06409	-180.18634	1479.59900	-1337.54773	-185.59245	1291.27295	-1362.29895	-230.19183	1150.75623	-1371.65649	-293.73682	1046.93860	-1339.36121	-370.86475	939.92133	-1380.30005	-336.05237	923.72406	-1374.16858	-391.15540	877.05621	-946.65442	-284.15829	974.68842	-1205.68835	-256.95398	951.41339	-1008.99048	-66.02943	1011.55811	-1121.65515	-50.05911	1012.54761	-870.84869	-282.68668	671.13611	-904.63660	-309.74890	471.49609	-907.48578	-307.57520	276.40790	-927.73260	-378.53217	66.19997	-982.16394	-353.16687	36.86398	-915.52161	-537.89227	47.72242	-1250.22375	-106.72812	658.54413	-1209.63306	-51.80032	455.36356	-1204.06189	57.57006	299.60852	-1161.94470	141.00481	124.91544	-1101.33850	184.24554	81.73884	-1187.54590	9.62410	36.58280	-1083.08911	-166.93970	1786.10339									 
179	1.780	-992.01178	-278.49344	1721.46289	-1134.58118	-276.43149	1701.50586	-980.75220	-148.63181	1646.15552	-1122.96936	-134.00914	1624.75195	-1059.00586	-94.96265	1504.58557	-1066.86462	-42.39425	1228.97168	-1040.71985	-234.59688	1435.28564	-1059.35950	-287.05627	1264.68176	-1131.78357	-41.54903	1334.05164	-875.33368	-152.53275	1470.78369	-803.53973	-107.44550	1273.13672	-799.14380	-80.72436	1134.21838	-786.42218	-69.51571	1002.77441	-807.47687	-112.75897	870.51227	-784.39984	-61.97467	879.45203	-778.47125	-71.71751	813.43555	-1240.12036	-187.74699	1478.61829	-1335.34497	-192.87372	1289.92310	-1359.85107	-236.63188	1149.16541	-1369.39819	-299.52545	1044.86304	-1337.61670	-376.43167	937.61694	-1378.28503	-341.18549	921.57770	-1372.17322	-395.87640	874.41425	-944.85999	-295.51395	974.58960	-1203.50366	-267.55640	950.67920	-1005.25201	-77.07735	1010.63879	-1118.03027	-60.34840	1010.93579	-869.08276	-292.23550	672.00232	-901.96466	-316.56235	471.75589	-908.19409	-315.78540	277.13550	-925.51141	-385.25705	66.18076	-980.04071	-356.39542	38.32616	-913.90784	-543.24738	44.29229	-1248.80530	-115.37682	658.51276	-1209.16638	-59.46432	455.88077	-1203.71033	52.63657	302.04037	-1162.47815	138.75987	128.63315	-1101.67590	182.28632	86.24553	-1187.79175	9.34308	36.61103	-1081.10596	-175.24358	1785.67407									 
180	1.790	-990.79626	-287.61353	1721.85132	-1132.59509	-284.71866	1701.57446	-978.65479	-157.10495	1646.76929	-1120.75903	-142.35374	1624.95557	-1056.49414	-103.24905	1504.35046	-1064.02368	-51.98035	1228.46899	-1038.66272	-243.12234	1435.36584	-1057.39526	-296.26526	1264.85205	-1128.55933	-50.22290	1333.19788	-872.89221	-161.54604	1470.00366	-801.07922	-116.89375	1271.85278	-796.86566	-91.00362	1133.04968	-783.65057	-80.44926	1001.79816	-805.18622	-123.36795	869.03186	-781.86340	-72.62495	878.33148	-775.79071	-82.90861	812.45764	-1238.37769	-195.34758	1477.77502	-1333.00208	-200.03328	1288.63269	-1357.21692	-243.08662	1147.70593	-1367.23694	-305.22583	1043.18176	-1335.80493	-381.65915	935.39050	-1376.21680	-345.97391	919.53345	-1370.21411	-400.22934	871.85907	-943.01215	-306.75992	974.63568	-1201.26587	-278.22635	950.00110	-1001.77441	-88.04589	1010.58136	-1114.49744	-70.67712	1009.41327	-867.01953	-301.80768	673.64093	-899.60132	-325.28802	473.35767	-903.47388	-323.81964	278.84848	-925.52325	-387.10175	65.90368	-979.86743	-357.38477	38.87551	-912.47266	-544.28809	40.66088	-1247.24353	-124.44177	658.73456	-1208.76147	-67.73136	456.58762	-1203.46790	47.10205	304.86633	-1163.08667	136.06087	132.74019	-1102.31848	179.96289	91.48969	-1188.14648	8.96898	36.67614	-1079.09375	-183.56329	1785.88025									 
181	1.800	-988.32709	-295.92361	1722.30884	-1130.62329	-293.10382	1701.78687	-976.59729	-165.49832	1647.55774	-1118.48914	-150.61893	1625.37769	-1053.94763	-111.88136	1504.64380	-1061.53296	-61.39036	1228.29175	-1036.64734	-251.45338	1435.77844	-1055.33569	-305.26227	1265.77234	-1125.48621	-58.63980	1332.55188	-870.21747	-170.41660	1469.74097	-798.39398	-126.71786	1271.30334	-794.05438	-101.63703	1132.22632	-781.31927	-91.33181	1000.99005	-802.46149	-134.82104	868.94818	-779.25452	-83.81310	877.64142	-773.10559	-94.28972	811.85822	-1236.67078	-202.82965	1477.48621	-1330.54016	-207.04807	1287.52942	-1354.25232	-249.61153	1146.55261	-1364.76831	-310.69525	1041.58313	-1333.77283	-386.28088	933.15436	-1374.13574	-350.42166	917.70612	-1368.34998	-404.23492	869.56476	-940.87317	-318.07098	975.22900	-1198.90002	-288.82401	949.38721	-998.49933	-98.28129	1011.75189	-1111.31873	-81.07990	1008.28717	-865.39374	-311.37860	675.79620	-898.01959	-336.16486	475.83322	-896.23749	-332.14923	280.64438	-926.19281	-386.90115	66.80271	-979.91412	-357.04871	38.98441	-914.94873	-544.57031	38.66730	-1245.67871	-133.87119	659.16907	-1208.53394	-76.79093	457.49677	-1203.31958	40.86298	308.00400	-1163.94019	132.85521	137.42105	-1102.97949	177.34727	97.22204	-1188.59290	8.54349	36.84457	-1076.99976	-192.16707	1786.24500									 
